<svg width="196" height="130" viewBox="0 0 196 130" fill="none" xmlns="http://www.w3.org/2000/svg">
<path d="M49.0552 64.3926C49.0552 68.1592 52.1521 71.2137 55.9739 71.2137C59.7957 71.2137 62.8926 68.1605 62.8926 64.3926C62.8926 64.2084 62.8847 64.0242 62.8703 63.8439C62.5861 67.355 59.6076 70.1164 55.9739 70.1164C52.3402 70.1164 49.3617 67.355 49.0775 63.8439C49.0631 64.0242 49.0552 64.2084 49.0552 64.3926Z" fill="black"/>
<path d="M55.974 71.2696C52.1285 71.2696 49 68.1852 49 64.394C49 64.2059 49.0079 64.0204 49.0224 63.8401H49.1329C49.2697 65.5302 50.042 67.0996 51.3076 68.2566C52.5797 69.42 54.2374 70.0621 55.974 70.0621C57.7106 70.0621 59.3682 69.4213 60.6404 68.2566C61.906 67.0983 62.6783 65.5302 62.8151 63.8401H62.9256C62.9401 64.0191 62.948 64.2059 62.948 64.3927C62.948 68.1839 59.8195 71.2683 55.974 71.2683V71.2696ZM49.1118 64.5315C49.1868 68.1982 52.2364 71.1593 55.974 71.1593C59.7116 71.1593 62.7598 68.1982 62.8361 64.5315C62.5677 65.9855 61.831 67.3175 60.7167 68.337C59.4235 69.5199 57.7395 70.171 55.974 70.171C54.2084 70.171 52.5245 69.5199 51.2313 68.337C50.1169 67.3175 49.3802 65.9868 49.1118 64.5315Z" fill="black"/>
<path d="M70.3342 54.8789C70.3118 54.9009 70.2579 54.9165 70.2263 54.9152C70.1026 54.9126 69.6711 54.5507 69.5146 54.4625C69.2265 54.3004 68.666 54.0721 68.3437 54.028C67.5833 53.9255 66.8531 54.4392 66.2979 54.8879C66.2137 54.9554 65.7559 55.4703 65.7178 55.0968C65.7046 54.9671 66.1598 54.3808 66.2519 54.2135C66.7965 53.2199 66.7268 52.3418 66.0717 51.4326C65.9638 51.2835 65.5967 50.9164 65.6046 50.7646C65.6112 50.6272 65.727 50.5844 65.852 50.622C65.9151 50.6414 66.2453 50.8905 66.3571 50.9514C67.4372 51.5442 68.3897 51.4741 69.3501 50.7128C69.5725 50.5377 69.9171 50.1447 70.1408 50.0331C70.2684 49.9696 70.3368 50.2082 70.2816 50.3405C70.196 50.5441 69.8448 50.932 69.7093 51.1667C69.1265 52.181 69.2554 53.1097 69.8764 54.0669C69.9724 54.2148 70.371 54.6493 70.3737 54.766C70.3737 54.7945 70.3539 54.8555 70.3329 54.8763L70.3342 54.8789Z" fill="black"/>
<path d="M71.7066 57.1526C73.6418 57.853 72.5801 60.7531 70.612 59.936C68.9162 59.2304 69.92 56.5053 71.7066 57.1526Z" fill="black"/>
<path d="M63.4651 50.7062C63.9963 50.7062 64.4268 50.2817 64.4268 49.7581C64.4268 49.2344 63.9963 48.8099 63.4651 48.8099C62.934 48.8099 62.5034 49.2344 62.5034 49.7581C62.5034 50.2817 62.934 50.7062 63.4651 50.7062Z" fill="black"/>
<path d="M38.1963 65.0009C38.1963 67.3511 38.6633 69.63 39.5842 71.7766C40.4736 73.8493 41.7458 75.7118 43.3679 77.3098C44.9887 78.9077 46.8779 80.1633 48.9802 81.04C51.1575 81.948 53.4704 82.4084 55.8529 82.4084C58.2368 82.4084 60.5483 81.948 62.7256 81.04C64.8279 80.1633 66.7158 78.9077 68.3379 77.3098C69.9587 75.7118 71.2322 73.8493 72.1216 71.7766C73.0425 69.63 73.5095 67.3498 73.5095 65.0009C73.5095 64.1033 73.4411 63.2161 73.3056 62.3432C73.2346 61.8867 72.782 61.5857 72.3255 61.6947C71.9229 61.7907 71.6598 62.1746 71.7216 62.578C71.8453 63.3731 71.9071 64.1824 71.9071 65.0009C71.9071 69.2292 70.2376 73.2046 67.2052 76.1943C64.1727 79.184 60.1418 80.8299 55.8529 80.8299C51.5641 80.8299 47.5318 79.184 44.4993 76.1943C41.4669 73.2046 39.7974 69.2292 39.7974 65.0009C39.7974 60.7725 41.4682 56.7984 44.4993 53.8087C47.5318 50.819 51.5641 49.1731 55.8529 49.1731C57.1606 49.1731 58.4433 49.3261 59.6826 49.6244C60.1036 49.7256 60.5299 49.4766 60.643 49.0641C60.7614 48.6348 60.4956 48.1964 60.0589 48.09C58.692 47.7606 57.2856 47.5946 55.8542 47.5946C53.4704 47.5946 51.1589 48.055 48.9815 48.963C46.8792 49.8398 44.99 51.0953 43.3692 52.6932C41.7484 54.2912 40.4749 56.1537 39.5856 58.2264C38.6633 60.3717 38.1963 62.6506 38.1963 65.0009Z" fill="black"/>
<path d="M55.8533 82.6004C53.4431 82.6004 51.1053 82.1348 48.9043 81.2178C46.777 80.3306 44.8681 79.0621 43.2301 77.446C41.5909 75.8299 40.3042 73.9479 39.4057 71.8519C38.4743 69.6819 38.002 67.3771 38.002 65.0009C38.002 62.6247 38.4743 60.3199 39.4057 58.1499C40.3042 56.0539 41.5922 54.1719 43.2301 52.5558C44.8694 50.9397 46.7783 49.6712 48.9043 48.784C51.1066 47.867 53.4444 47.4014 55.8533 47.4014C57.2952 47.4014 58.7252 47.57 60.1053 47.9033C60.3697 47.9669 60.5907 48.129 60.7289 48.3599C60.8657 48.5895 60.9025 48.8566 60.8328 49.1148C60.6907 49.6323 60.1658 49.9384 59.6382 49.8113C58.4095 49.5155 57.136 49.3664 55.8546 49.3664C51.6184 49.3664 47.6347 50.9929 44.6391 53.9462C41.6435 56.8996 39.9938 60.827 39.9938 65.0035C39.9938 69.18 41.6435 73.1074 44.6391 76.0608C47.6347 79.0141 51.6184 80.6406 55.8546 80.6406C60.0908 80.6406 64.0744 79.0141 67.0701 76.0608C70.0657 73.1074 71.7154 69.18 71.7154 65.0035C71.7154 64.2006 71.6536 63.3952 71.5326 62.6092C71.4549 62.1111 71.7852 61.6286 72.2824 61.5106C72.5535 61.4457 72.8403 61.4963 73.0705 61.6494C73.302 61.8024 73.4586 62.0449 73.5007 62.316C73.6375 63.1967 73.7072 64.1008 73.7072 65.0035C73.7072 67.3784 73.2349 69.6832 72.3035 71.8545C71.4049 73.9505 70.117 75.8325 68.4777 77.4486C66.8398 79.0634 64.9309 80.3332 62.8036 81.2204C60.6026 82.1387 58.2648 82.603 55.8546 82.603L55.8533 82.6004ZM55.8533 47.7853C53.497 47.7853 51.2092 48.2406 49.0556 49.1381C46.9756 50.0045 45.1088 51.2458 43.5051 52.8269C41.9014 54.408 40.6437 56.2485 39.7635 58.2991C38.8531 60.4211 38.3914 62.6753 38.3914 64.9996C38.3914 67.3239 38.8531 69.5795 39.7635 71.7014C40.6437 73.752 41.9014 75.5938 43.5051 77.1736C45.1075 78.7534 46.9756 79.9947 49.0556 80.8624C51.2079 81.76 53.4957 82.2152 55.8533 82.2152C58.2108 82.2152 60.4973 81.76 62.651 80.8624C64.7309 79.9947 66.5978 78.7534 68.2015 77.1736C69.8052 75.5925 71.0642 73.752 71.943 71.7014C72.8534 69.5782 73.3152 67.3239 73.3152 64.9996C73.3152 64.1163 73.2468 63.2317 73.1139 62.3705C73.0876 62.2032 72.9955 62.0592 72.8521 61.9645C72.71 61.8698 72.539 61.84 72.3719 61.8802C72.068 61.9529 71.868 62.246 71.9141 62.5482C72.0391 63.3524 72.1022 64.1773 72.1022 64.9996C72.1022 69.2785 70.4117 73.302 67.3424 76.328C64.2731 79.3539 60.1921 81.0206 55.852 81.0206C51.5118 81.0206 47.4308 79.3539 44.3615 76.328C41.2923 73.302 39.6017 69.2785 39.6017 64.9996C39.6017 60.7207 41.2923 56.6973 44.3615 53.6713C47.4308 50.6453 51.5118 48.9786 55.852 48.9786C57.1636 48.9786 58.4674 49.1316 59.7277 49.4351C60.0487 49.5117 60.3684 49.3262 60.4539 49.011C60.4973 48.8541 60.475 48.6919 60.3908 48.5518C60.3066 48.4118 60.1711 48.3132 60.0106 48.2743C58.6621 47.9487 57.2623 47.784 55.852 47.784L55.8533 47.7853Z" fill="black"/>
<path d="M55.9732 77.3553C54.2695 77.3553 52.6171 77.0259 51.0608 76.3773C49.5584 75.7509 48.2086 74.8533 47.0495 73.7119C45.8905 72.5692 44.9814 71.2398 44.346 69.7573C43.6882 68.2229 43.354 66.5938 43.354 64.9141C43.354 63.2344 43.6882 61.6054 44.346 60.071C44.9814 58.5897 45.8918 57.259 47.0495 56.1163C48.2086 54.9736 49.557 54.0773 51.0608 53.4509C52.6171 52.8023 54.2695 52.4729 55.9732 52.4729C57.6769 52.4729 59.3293 52.8023 60.8856 53.4509C62.3881 54.0773 63.7379 54.9749 64.8969 56.1163C66.0559 57.259 66.965 58.5884 67.6004 60.071C68.2582 61.6054 68.5924 63.2344 68.5924 64.9141C68.5924 66.5938 68.2582 68.2229 67.6004 69.7573C66.965 71.2385 66.0546 72.5692 64.8969 73.7119C63.7379 74.8546 62.3894 75.7509 60.8856 76.3773C59.3293 77.0259 57.6769 77.3553 55.9732 77.3553ZM55.9732 54.054C53.0302 54.054 50.2648 55.1837 48.1836 57.2343C46.1036 59.285 44.9577 62.0126 44.9577 64.9141C44.9577 67.8156 46.1036 70.542 48.1836 72.5939C50.2635 74.6445 53.0302 75.7742 55.9732 75.7742C58.9162 75.7742 61.6816 74.6445 63.7628 72.5939C65.8428 70.5433 66.9887 67.8156 66.9887 64.9141C66.9887 62.0126 65.8428 59.2863 63.7628 57.2343C61.6829 55.1837 58.9162 54.054 55.9732 54.054Z" fill="black"/>
<path d="M86.4524 63.5198L82.6214 57.3835H82.5806L82.6346 63.5198H80.4033V54.137H83.024L86.8418 60.2591H86.8826L86.8287 54.137H89.0599V63.5198H86.4524Z" fill="black"/>
<path d="M97.5694 63.5198V59.5976H93.8594V63.5198H91.561V54.137H93.8594V57.6883H97.5694V54.137H99.8677V63.5198H97.5694Z" fill="black"/>
<path d="M108.819 63.5198L108.079 61.678H104.395L103.697 63.5198H101.197L105.19 54.137H107.421L111.373 63.5198H108.82H108.819ZM106.265 56.6416L105.055 59.8622H107.448L106.265 56.6416Z" fill="black"/>
<path d="M122.18 63.5198L118.645 59.1994H118.619V63.5198H116.36V54.137H118.619V57.9542H118.66L122.06 54.137H124.938L120.838 58.4575L125.18 63.5198H122.183H122.18Z" fill="black"/>
<path d="M132.46 63.5198V59.5976H128.75V63.5198H126.452V54.137H128.75V57.6883H132.46V54.137H134.759V63.5198H132.46Z" fill="black"/>
<path d="M141.991 63.7714C139.02 63.7714 136.815 61.7571 136.815 58.7882C136.815 55.8193 139.02 53.8854 141.991 53.8854C144.962 53.8854 147.18 55.7804 147.18 58.7882C147.18 61.796 144.975 63.7714 141.991 63.7714ZM141.991 55.9256C140.378 55.9256 139.276 57.1448 139.276 58.7882C139.276 60.4315 140.391 61.7039 141.991 61.7039C143.591 61.7039 144.72 60.4847 144.72 58.7882C144.72 57.0917 143.604 55.9256 141.991 55.9256Z" fill="black"/>
<path d="M155.445 63.5198L154.706 61.678H151.022L150.323 63.5198H147.824L151.817 54.137H154.048L158 63.5198H155.446H155.445ZM152.89 56.6416L151.68 59.8622H154.073L152.89 56.6416Z" fill="black"/>
<path d="M84.5447 76.0258C81.5741 76.0258 79.3691 74.0115 79.3691 71.0426C79.3691 68.0737 81.5741 66.1398 84.5447 66.1398C87.5153 66.1398 89.7334 68.0348 89.7334 71.0426C89.7334 74.0504 87.5285 76.0258 84.5447 76.0258ZM84.5447 68.18C82.9318 68.18 81.8293 69.3993 81.8293 71.0426C81.8293 72.686 82.9449 73.9584 84.5447 73.9584C86.1445 73.9584 87.2732 72.7391 87.2732 71.0426C87.2732 69.3461 86.1576 68.18 84.5447 68.18Z" fill="black"/>
<path d="M96.8824 75.7742L94.8261 72.0504H94.046V75.7742H91.7871V66.3914H95.4168C97.2455 66.3914 99.0597 67.0801 99.0597 69.2267C99.0597 70.4862 98.3072 71.3863 97.0837 71.7573L99.5702 75.7729H96.8824V75.7742ZM95.2563 68.2202H94.0328V70.4071H95.1221C95.8615 70.4071 96.789 70.2216 96.789 69.267C96.789 68.3928 95.9418 68.2202 95.2563 68.2202Z" fill="black"/>
<path d="M101.238 75.7742V66.3914H103.55V75.7742H101.238Z" fill="black"/>
<path d="M110.781 76.0258C107.81 76.0258 105.605 74.0115 105.605 71.0426C105.605 68.0737 107.81 66.1398 110.781 66.1398C113.752 66.1398 115.97 68.0347 115.97 71.0426C115.97 74.0504 113.765 76.0258 110.781 76.0258ZM110.781 68.18C109.168 68.18 108.066 69.3992 108.066 71.0426C108.066 72.6859 109.181 73.9583 110.781 73.9583C112.381 73.9583 113.51 72.7391 113.51 71.0426C113.51 69.3461 112.394 68.18 110.781 68.18Z" fill="black"/>
<path d="M124.074 75.7742L120.243 69.6379H120.202L120.256 75.7742H118.025V66.3914H120.646L124.463 72.5134H124.504L124.45 66.3914H126.682V75.7742H124.074Z" fill="black"/>
</svg>
